# xmcd
# 
# Track frame offsets:
#     183
#     19713
#     42640
#     65313
# 
# Disc length: 1052
# 
# Revision: 20
# Processed by: cddbd v1.5.2PL0 Copyright (c) Steve Scherf et al.
# Submitted via: fre:ac v1.0.17
# 
DISCID=2e041a04
DTITLE=Enigma - Sadeness Part I
DYEAR=1990
DGENRE=New Age
TTITLE0=Sadeness Part I (Radio Edit)
TTITLE1=Sadeness Part I (Violent US Remix)
TTITLE2=Sadeness Part I (Extended Trance Mix)
TTITLE3=Sadeness Part I (Meditation Mix)
EXTD=
EXTT0=
EXTT1=
EXTT2=
EXTT3=
PLAYORDER=
